# xmcd
# 
# Track frame offsets:
#     150
#     12815
#     27327
#     42907
#     55635
#     70407
#     82187
#     100305
#     114060
#     127037
#     144472
#     155427
#     170772
#     185650
#     199092
# 
# Disc length: 2884
# 
# Revision: 22
# Processed by: cddbd v1.5.2PL0 Copyright (c) Steve Scherf et al.
# Submitted via: fre:ac v1.0.31
# 
DISCID=ce0b420f
DTITLE=Johnny Cash - Unearthed - Disc 3 - Redemption Songs
DYEAR=2003
DGENRE=Country
TTITLE0=A Singer Of Songs
TTITLE1=The L and N Don't Stop Here Anymore
TTITLE2=Redemption Song (With Joe Strummer)
TTITLE3=Father And Son (With Fiona Apple)
TTITLE4=Chattanooga Sugar Babe
TTITLE5=He Stopped Loving Her Today
TTITLE6=Hard Times
TTITLE7=Wichita Lineman
TTITLE8=Cindy (With Nick Cave)
TTITLE9=Big Iron
TTITLE10=Salty Dog
TTITLE11=Gentle On My Mind (With Glen Campbell)
TTITLE12=You Are My Sunshine
TTITLE13=You'll Never Walk Alone
TTITLE14=The Man Comes Around (Early Take)
EXTD=Limited Edition Deluxe Packaging With 5 Discs.\n06024 9861335 1 YEAR: 2003
EXTT0=
EXTT1=
EXTT2=
EXTT3=
EXTT4=
EXTT5=
EXTT6=
EXTT7=
EXTT8=
EXTT9=
EXTT10=
EXTT11=
EXTT12=
EXTT13=
EXTT14=
PLAYORDER=
